<?xml version="1.0" encoding="UTF-8" standalone="no"?>
<!-- Created with Inkscape (http://www.inkscape.org/) -->

<svg
   xmlns:dc="http://purl.org/dc/elements/1.1/"
   xmlns:cc="http://creativecommons.org/ns#"
   xmlns:rdf="http://www.w3.org/1999/02/22-rdf-syntax-ns#"
   xmlns:svg="http://www.w3.org/2000/svg"
   xmlns="http://www.w3.org/2000/svg"
   xmlns:sodipodi="http://sodipodi.sourceforge.net/DTD/sodipodi-0.dtd"
   xmlns:inkscape="http://www.inkscape.org/namespaces/inkscape"
   width="100mm"
   height="70mm"
   viewBox="0 0 744.09449 736.65354"
   id="svg8668"
   version="1.1"
   inkscape:version="0.92+devel unknown"
   sodipodi:docname="robotical_logo_outline.svg">
  <defs
     id="defs8670" />
  <sodipodi:namedview
     id="base"
     pagecolor="#ffffff"
     bordercolor="#666666"
     borderopacity="1.0"
     inkscape:pageopacity="0.0"
     inkscape:pageshadow="2"
     inkscape:zoom="2.8"
     inkscape:cx="158.85452"
     inkscape:cy="124.29873"
     inkscape:document-units="px"
     inkscape:current-layer="layer1"
     showgrid="false"
     inkscape:window-width="1920"
     inkscape:window-height="1061"
     inkscape:window-x="0"
     inkscape:window-y="19"
     inkscape:window-maximized="0"
     inkscape:document-rotation="0" />
  <metadata
     id="metadata8673">
    <rdf:RDF>
      <cc:Work
         rdf:about="">
        <dc:format>image/svg+xml</dc:format>
        <dc:type
           rdf:resource="http://purl.org/dc/dcmitype/StillImage" />
        <dc:title></dc:title>
      </cc:Work>
    </rdf:RDF>
  </metadata>
  <g
     inkscape:label="Layer 1"
     inkscape:groupmode="layer"
     id="layer1"
     transform="translate(0,-315.70865)">
    <path
       style="color:#000000;font-style:normal;font-variant:normal;font-weight:normal;font-stretch:normal;font-size:medium;line-height:normal;font-family:sans-serif;font-variant-ligatures:normal;font-variant-position:normal;font-variant-caps:normal;font-variant-numeric:normal;font-variant-alternates:normal;font-variant-east-asian:normal;font-feature-settings:normal;text-indent:0;text-align:start;text-decoration:none;text-decoration-line:none;text-decoration-style:solid;text-decoration-color:#000000;letter-spacing:normal;word-spacing:normal;text-transform:none;writing-mode:lr-tb;direction:ltr;text-orientation:mixed;dominant-baseline:auto;baseline-shift:baseline;text-anchor:start;white-space:normal;shape-padding:0;clip-rule:nonzero;display:inline;overflow:visible;visibility:visible;isolation:auto;mix-blend-mode:normal;color-interpolation:sRGB;color-interpolation-filters:linearRGB;solid-color:#000000;solid-opacity:1;vector-effect:none;fill:#000000;fill-opacity:1;fill-rule:nonzero;stroke:none;stroke-width:2.72334123;stroke-linecap:butt;stroke-linejoin:miter;stroke-miterlimit:4;stroke-dasharray:none;stroke-dashoffset:0;stroke-opacity:1;color-rendering:auto;image-rendering:auto;shape-rendering:auto;text-rendering:auto;enable-background:accumulate"
       d="m 246.10051,355.80295 -1.35412,0.15227 -359.55962,41.35775 87.049785,123.85031 c -67.646638,52.39958 -103.154465,136.27434 -93.483215,221.35783 v 0.005 0.005 c 0.94947,7.96128 2.28853,15.86991 4.01342,23.69982 l 0.23928,1.06589 h 56.709887 c 13.666138,0 25.800856,4.16738 33.80949,13.12245 1.800566,2.01333 3.331923,4.23053 4.682317,6.60747 l 0.391552,0.6852 h 19.0555667 l 0.3969906,-0.66889 c 1.43351318,-2.4456 3.0686402,-4.72436 4.9868602,-6.77602 8.3431875,-8.92356 20.7610905,-12.97021 34.9025745,-12.97021 H 67.9712 c 14.141529,0 26.553796,4.04642 34.89714,12.97021 1.91905,2.05255 3.5595,4.33168 4.99229,6.77602 l 0.397,0.66889 h 15.87419 v -11.0124 l -1.37043,0.0163 c -31.81945,0.27652 -58.69955,-23.47799 -62.343896,-55.08927 -3.929257,-34.15312 20.549579,-64.98824 54.703176,-68.91329 2.06045,-0.23639 4.13127,-0.37288 6.20503,-0.40242 31.96104,-0.4629 59.04961,23.34523 62.70282,55.10016 2.53565,22.31259 -7.14543,44.2553 -25.33672,57.42231 l -3.40434,2.4635 h 31.61245 c 15.48023,0 28.80904,4.10217 37.92622,13.36174 1.90669,1.93656 3.54317,4.10966 5.03036,6.42798 l 0.40243,0.6254 h 23.68896 l 0.39697,-0.66889 c 1.43153,-2.44212 3.08222,-4.72149 5.00319,-6.77602 8.34371,-8.92421 20.74479,-12.97021 34.88627,-12.97021 h 30.0299 c 12.65819,0 23.92638,3.28442 32.12907,10.35985 l 1.64236,1.41394 0.56557,-2.09371 c 5.45425,-20.16144 8.08794,-40.90595 8.28242,-61.71309 0.13115,17.11625 1.85571,34.20146 5.5579,50.96712 l 0.23926,1.06589 h 104.57722 2.97472 48.1936 v 20.41512 h 15.52615 l 0.39157,-0.67432 c 1.45238,-2.486 3.14356,-4.7911 5.11194,-6.87938 5.82208,-6.17641 13.62003,-9.94053 22.60674,-11.68675 l 3.22486,-0.62539 -2.72457,-1.83814 c -19.21361,-12.97984 -29.61055,-35.56457 -26.98449,-58.60238 3.65602,-31.75638 30.75039,-55.56312 62.7137,-55.09473 2.07372,0.0295 4.14457,0.16595 6.20501,0.40242 34.15145,3.92773 58.62713,34.76204 54.69774,68.91329 -2.57886,22.1338 -16.79407,41.19427 -37.27365,49.97736 l -2.43633,1.04414 2.26776,1.37044 c 2.83027,1.71141 5.42196,3.73407 7.68967,6.13974 1.9666,2.08639 3.64656,4.39062 5.10106,6.87938 l 0.39154,0.67432 h 17.05972 l 0.397,-0.66889 c 1.43345,-2.44557 3.06863,-4.72436 4.98687,-6.77602 8.3431,-8.92356 20.76105,-12.97021 34.90256,-12.97021 h 23.49862 c 14.14145,0 26.5538,4.04642 34.89713,12.97021 1.9201,2.05364 3.56556,4.33268 4.99773,6.77602 l 0.39699,0.66889 h 16.02105 v -20.41512 h 49.81419 v 20.41512 h 13.43244 l 0.2991,-0.95167 c 4.50105,-14.42114 7.6609,-29.23193 9.43533,-44.23458 v -0.005 c 9.58267,-83.90361 -24.77429,-166.74514 -90.75323,-219.35656 l 88.45832,-125.85158 -360.91918,-41.51002 -0.15771,1.34868 -5.45456,47.07334 301.04968,34.64154 -47.5356,67.12954 c -30.43514,-18.79269 -64.5931,-30.76006 -100.12874,-34.93521 -8.11868,-0.93232 -16.27907,-1.45465 -24.45029,-1.57165 -125.84576,-1.83074 -232.64052,91.98937 -247.02627,217.02354 v 0.005 0.005 c -0.69832,6.33086 -1.11278,12.67779 -1.31604,19.02836 -0.19268,-6.3479 -0.48153,-12.6965 -1.16921,-19.02836 v -0.005 -0.005 C 351.28543,561.48068 244.49373,467.66129 118.65009,469.48919 c -8.16941,0.11718 -16.32797,0.63951 -24.44486,1.57165 -34.404976,4.04205 -67.531423,15.39144 -97.2464711,33.17866 L -49.331475,438.86651 251.71275,404.22497 Z m -8.21173,10.84927 3.45872,29.85046 -307.439607,35.37026 60.4078843,85.30955 6.36273399,-3.8557 C 29.529993,495.85099 61.791795,484.77449 95.29288,480.83879 c 7.80265,-0.8955 15.64573,-1.40472 23.4986,-1.51727 121.1165,-1.75659 223.72765,88.40844 237.58005,208.74111 3e-5,1.7e-4 0.005,0.0245 0.005,0.0272 2.76823,25.55163 1.04812,51.31055 -4.51918,76.36909 -8.35145,-4.01521 -17.75423,-6.00924 -27.5936,-6.00924 h -30.0299 c -15.93459,0 -31.17854,4.65723 -41.71671,15.92857 -1.37091,1.46628 -2.3296,3.01888 -3.32819,4.48112 H 234.8488 c -1.00661,-1.38759 -1.97808,-2.85913 -3.36626,-4.26903 -11.34454,-11.5218 -27.44929,-16.14066 -44.58809,-16.14066 h -8.23348 c 11.1759,-14.5015 16.77628,-32.83488 14.66692,-51.53814 l -0.005,-0.0652 v -0.0163 c -4.19216,-36.4419 -35.44031,-63.89316 -72.1164,-63.37173 h -0.0163 -0.0109 c -2.38598,0.0354 -4.76611,0.18903 -7.13496,0.46226 -39.173397,4.5042 -67.419715,40.09431 -62.914908,79.26768 v 0.005 c 1.536738,13.32902 6.897918,25.28073 14.617968,35.25606 H 37.941278 c -15.934424,0 -31.192328,4.65464 -41.7329945,15.92857 -1.3750246,1.47071 -2.3251619,3.02211 -3.317321,4.48112 h -9.4190195 c -0.889135,-1.3527 -1.732096,-2.7871 -2.974713,-4.17656 -10.177341,-11.38002 -25.209472,-16.23313 -40.786744,-16.23313 h -48.873396 c -1.07866,-5.49975 -2.1371,-10.98659 -2.79525,-16.49959 -9.34562,-82.26996 25.135777,-163.38337 90.867425,-213.73342 l 6.085383,-4.66057 -83.112506,-118.25436 z m 262.18262,0 336.01751,38.64952 -84.4612,120.15231 5.93311,4.68231 c 64.11753,50.56923 97.48866,130.68701 88.22446,211.81916 -0.97448,8.23058 -2.62781,16.35007 -4.53007,24.42309 v -7.92893 h -68.5054 v 20.40969 h -1.91969 c -0.99563,-1.46093 -1.94945,-3.0123 -3.32276,-4.48112 -10.54033,-11.27387 -25.7932,-15.92857 -41.72756,-15.92857 h -23.49862 c -15.93437,0 -31.19249,4.65453 -41.73299,15.92857 -1.37518,1.47085 -2.32507,3.02194 -3.31731,4.48112 h -7.54284 c -0.95735,-1.40157 -1.92899,-2.87785 -3.19769,-4.29078 17.53947,-11.50166 29.5176,-30.11624 31.99314,-51.36409 l 0.005,-0.0761 c 4.46847,-39.14823 -23.76938,-74.70389 -62.92034,-79.20784 -2.36749,-0.27287 -4.75019,-0.42682 -7.13496,-0.46226 -36.27071,-0.52992 -67.13648,26.33757 -71.88799,62.16989 h -0.2665 v 1.27797 c -2.43368,21.52545 5.28416,42.53305 20.03447,57.71051 -5.01485,2.40676 -9.72546,5.44538 -13.66084,9.62024 -1.41507,1.50134 -2.41252,3.11143 -3.44783,4.62251 h -1.43571 v -20.40969 h -57.54195 -2.97469 -96.72985 c -4.46867,-23.16564 -5.66083,-46.84725 -3.08347,-70.31093 v -0.0109 c 0.002,-0.0195 0.002,-0.0397 0.005,-0.0598 l 0.005,-0.0217 v -0.0109 C 391.31394,567.71197 493.92943,477.55932 615.04106,479.32152 h 0.0109 c 7.85108,0.11271 15.6923,0.62197 23.49317,1.51727 34.59355,4.06485 67.85374,15.7441 97.39329,34.20104 l 6.39537,3.9971 61.71851,-87.16399 -307.43417,-35.37026 z m -623.09092,408.52546 v 1.35955 235.73107 h 34.059645 v -94.65787 h 16.472407 l 20.561957,94.65787 h 32.509753 l -22.046595,-98.3722 c 5.951176,-2.90196 10.623237,-7.44845 13.66084,-13.79134 3.221163,-6.72619 4.780207,-15.27553 4.780207,-25.64128 v -57.78121 c 0,-13.58659 -3.036854,-23.99305 -9.32113,-31.01967 -6.284273,-7.02662 -15.718816,-10.48492 -27.941637,-10.48492 z m 160.960798,0 c -12.755842,0 -22.586908,3.44207 -29.1543632,10.46315 -6.5674552,7.02108 -9.7507504,17.44544 -9.7507504,31.04144 v 154.40774 c 0,13.4907 3.2142324,23.8376 9.8377621,30.80209 6.6235295,6.9645 16.5275935,10.3762 29.3882095,10.3762 h 29.382769 c 12.860616,0 22.760603,-3.4117 29.382768,-10.3762 6.622167,-6.96459 9.837767,-17.31149 9.837767,-30.80209 V 816.68227 c 0,-13.5958 -3.18059,-24.02022 -9.745314,-31.04144 C 90.555405,778.61964 80.727043,775.17768 67.9712,775.17768 Z m 94.065102,0 v 1.35955 235.73107 h 64.36149 c 12.08307,0 21.38812,-2.9816 27.64252,-9.1199 6.25443,-6.13829 9.2994,-15.29009 9.2994,-27.16399 v -58.75466 c 0,-6.82743 -2.29681,-12.72805 -6.82498,-17.42955 -4.26098,-4.42401 -10.58992,-7.71299 -18.59333,-10.12599 6.9141,-1.63348 12.45718,-4.3255 16.17329,-8.41836 4.00212,-4.40775 5.98206,-10.24032 5.98206,-17.23921 v -45.04487 c 0,-14.36882 -3.55096,-25.38598 -10.83294,-32.78167 -7.28198,-7.39569 -18.15031,-11.01242 -32.30855,-11.01242 z m 162.22793,0 c -12.75587,0 -22.58421,3.44196 -29.14893,10.46315 -6.56472,7.02122 -9.74531,17.44564 -9.74531,31.04144 v 154.40774 c 0,13.4907 3.21423,23.8376 9.83775,30.80209 6.62353,6.9645 16.52758,10.3762 29.38822,10.3762 h 29.37733 c 12.86061,0 22.76463,-3.4117 29.38821,-10.3762 6.6235,-6.96449 9.83775,-17.31139 9.83775,-30.80209 V 816.68227 c 0,-13.59588 -3.18468,-24.02033 -9.75074,-31.04144 -6.56611,-7.02111 -16.39309,-10.46315 -29.14892,-10.46315 z m 82.65024,0 v 1.35955 29.75801 h 30.02993 v 205.97306 h 34.05965 V 806.29524 h 30.0299 v -31.11756 z m 109.60757,0 v 1.35955 235.73107 h 34.05421 V 775.17768 Z m 97.8338,0 c -12.75397,0 -22.57733,3.4145 -29.14347,10.38159 -6.56617,6.96709 -9.75077,17.31341 -9.75077,30.80215 v 154.72859 c 0,13.4888 3.18455,23.8364 9.75077,30.80209 6.56623,6.9657 16.38964,10.3762 29.14347,10.3762 h 20.2411 c 12.75388,0 22.57591,-3.4105 29.14349,-10.3762 6.56759,-6.96569 9.7562,-17.31319 9.7562,-30.80209 v -16.38 H 609.4125 v 14.0959 c 0,4.3644 -0.98598,7.4199 -2.75174,9.3701 -1.76577,1.9503 -4.41474,2.9801 -8.29875,2.9801 h -7.83105 c -3.88398,0 -6.52886,-1.03 -8.29332,-2.9801 -1.76443,-1.95 -2.75174,-5.0054 -2.75174,-9.3701 V 818.64547 c 0,-4.36467 0.98731,-7.42002 2.75174,-9.37009 1.76446,-1.95003 4.40934,-2.98014 8.29332,-2.98014 h 6.205 c 4.4572,0 7.56206,1.07212 9.57675,3.03998 2.01469,1.96786 3.09979,4.97256 3.09979,9.31025 v 25.51075 h 34.05421 v -27.7948 c 0,-13.48885 -3.18866,-23.83514 -9.7562,-30.80215 -6.5675,-6.967 -16.38955,-10.38159 -29.14349,-10.38159 z m 117.95526,0 c -12.75584,0 -22.58691,3.44207 -29.15436,10.46315 -6.56745,7.02108 -9.75074,17.44544 -9.75074,31.04144 v 195.58603 h 34.05422 v -85.84794 h 33.19495 v 85.84794 h 34.05422 V 816.68227 c 0,-13.59588 -3.18466,-24.02033 -9.75074,-31.04144 -6.56609,-7.02111 -16.3931,-10.46315 -29.14893,-10.46315 z m 87.69152,0 v 1.35955 235.73107 h 77.14131 V 981.15611 H 824.02689 V 775.17768 Z m -903.6439,9.83775 h 53.381686 c 10.500496,0 16.743176,2.63647 20.980703,7.37425 4.214599,4.71216 6.944621,12.59376 6.944621,24.78748 v 57.78121 c 0,9.41706 -1.482354,16.61328 -3.872022,21.60065 -2.406329,5.02218 -5.416375,7.93617 -9.962842,9.93023 l -6.020122,2.63209 21.127531,94.29896 h -13.291038 l -20.567396,-94.66332 h -33.358117 v 94.66332 H -113.6712 Z m 151.612478,0 H 67.9712 c 11.103957,0 17.858951,2.74097 22.313065,7.50478 4.440112,4.74881 7.238289,12.51499 7.238289,24.65695 v 154.40225 c 0,12.0136 -2.788128,19.654 -7.265478,24.3633 -4.488162,4.72079 -11.377667,7.47759 -22.612171,7.47759 H 38.267574 c -11.23453,0 -18.128214,-2.7566 -22.617609,-7.47759 -4.478957,-4.7099 -7.2709166,-12.3505 -7.2709166,-24.3633 V 817.17716 c 0,-12.14157 2.7969186,-19.90789 7.2382866,-24.65695 4.454964,-4.76362 11.219959,-7.50478 22.323943,-7.50478 z m 103.413432,0 h 45.55063 c 12.58454,0 20.54462,3.0468 25.64671,8.22805 5.09922,5.17833 8.1519,13.37708 8.1519,26.21773 v 45.05033 c 0,5.29234 -1.23407,8.3938 -3.56203,10.95801 -2.29933,2.53264 -6.18838,4.73013 -12.5732,6.02556 l -6.38992,1.29432 v 14.2264 l 5.84067,1.62604 c 7.68733,2.1408 12.79379,5.08483 15.73281,8.13559 2.9834,3.09689 4.21462,6.12086 4.21462,10.94173 v 58.76012 c 0,10.2971 -2.46501,16.5266 -6.50413,20.4912 -4.03431,3.95989 -10.53413,6.44979 -21.0949,6.44979 h -55.01316 z m 152.8796,0 h 30.04079 c 11.10397,0 17.85895,2.74099 22.31306,7.50478 4.43977,4.74842 7.23286,12.5146 7.23286,24.65695 v 154.40225 c 0,12.0132 -2.78691,19.6538 -7.26549,24.3633 -4.48973,4.72129 -11.37763,7.47759 -22.61216,7.47759 h -29.37733 c -11.23457,0 -18.12244,-2.7563 -22.61219,-7.47759 -4.47897,-4.7099 -7.27089,-12.3505 -7.27092,-24.3633 V 817.17716 c 0,-12.14235 2.79309,-19.90853 7.23286,-24.65695 4.45377,-4.76345 11.21457,-7.50478 22.31852,-7.50478 z m 91.99313,0 h 75.43373 v 12.43182 H 431.62581 V 1003.4203 H 416.25734 V 797.44725 h -30.0299 z m 109.61302,0 h 15.36298 v 218.40487 h -15.36298 z m 88.48546,0 h 20.23567 c 11.11464,0 17.90002,2.73504 22.34569,7.4504 4.4337,4.70259 7.21655,12.36204 7.21655,24.38503 v 18.45734 h -15.36302 v -16.16786 c 0,-5.95397 -1.66224,-11.84559 -5.91679,-15.99927 -4.2484,-4.14769 -10.12321,-5.69382 -16.11349,-5.69382 h -6.19957 c -5.64067,0 -11.35964,1.77593 -15.22706,6.0473 -3.84073,4.24185 -5.16632,9.86802 -5.16632,15.64579 v 150.15507 c 0,5.778 1.32717,11.403 5.16632,15.6458 3.86603,4.2725 9.58421,6.0527 15.22706,6.0527 h 7.83105 c 5.64284,0 11.36601,-1.7796 15.23248,-6.0527 3.83915,-4.2428 5.16632,-9.8678 5.16632,-15.6458 v -4.7476 h 15.36302 v 7.0316 c 0,12.0229 -2.78318,19.6882 -7.21655,24.3905 -4.44567,4.71529 -11.23108,7.45039 -22.34569,7.45039 h -20.23567 c -11.11453,0 -17.90155,-2.7357 -22.3457,-7.45039 -4.43138,-4.7013 -7.20565,-12.3664 -7.20565,-24.3905 V 816.85086 c 0,-12.02413 2.77393,-19.68339 7.20565,-24.38503 4.44415,-4.71475 11.23117,-7.4504 22.3457,-7.4504 z m 117.95526,0 h 23.49862 c 11.10392,0 17.86898,2.74116 22.32395,7.50478 4.44097,4.7487 7.23283,12.51499 7.23283,24.65695 v 186.24314 h -15.36844 v -85.85339 h -51.88073 v 85.85339 H 672.7244 V 817.17716 c 0,-12.14196 2.79189,-19.90825 7.23286,-24.65695 4.45494,-4.76362 11.21997,-7.50478 22.32392,-7.50478 z m 97.03438,0 h 15.36847 v 205.97848 h 43.08709 v 12.42639 h -58.45556 z m -897.623756,12.43182 v 1.35955 6.62375 92.52609 h 28.556159 c 6.338407,0 12.644044,-2.2591 16.679058,-7.14039 3.991788,-4.82897 5.334904,-11.06511 5.334907,-17.81566 v -50.5973 c 0,-6.7506 -1.342776,-12.99167 -5.334907,-17.82108 -4.035378,-4.88168 -10.341498,-7.13496 -16.679058,-7.13496 z m 143.754237,0 c -5.916257,0 -11.758046,1.58578 -15.934021,5.75909 -4.176186,4.1735 -5.764527,10.01592 -5.764527,15.934 v 150.15507 c 0,5.9533 1.657872,11.844 5.911359,15.9992 4.24716,4.1492 10.121283,5.6993 16.113481,5.6993 h 15.993843 c 5.643605,0 11.362739,-1.7846 15.227051,-6.0582 3.836746,-4.2432 5.166321,-9.8634 5.166321,-15.6403 V 819.14034 c 0,-5.95397 -1.66225,-11.84559 -5.916797,-15.99927 -4.247948,-4.14724 -10.117792,-5.69382 -16.108046,-5.69382 z m 111.271669,0 v 1.35955 6.62375 78.49546 h 22.67744 c 7.25132,0 14.0303,-1.77808 18.95224,-6.43344 4.93559,-4.66834 6.98812,-11.44545 6.98812,-18.5335 v -36.55578 c 0,-6.75222 -1.34658,-12.99273 -5.34035,-17.82108 -4.03721,-4.8809 -10.34682,-7.13496 -16.68448,-7.13496 z m 145.03221,0 c -5.9163,0 -11.75803,1.58578 -15.934,5.75909 -4.17618,4.1735 -5.76452,10.01589 -5.76452,15.934 v 150.15507 c 0,5.9533 1.65784,11.844 5.91134,15.9992 4.2467,4.1487 10.11585,5.6993 16.10805,5.6993 h 15.99384 c 5.64287,0 11.361,-1.7802 15.22705,-6.0527 3.83915,-4.2428 5.16633,-9.8678 5.16633,-15.6458 V 819.14034 c 0,-5.95397 -1.66225,-11.84559 -5.9168,-15.99927 -4.24795,-4.14724 -10.11775,-5.69382 -16.10806,-5.69382 z m 408.03604,0 c -5.9163,0 -11.75304,1.58623 -15.9286,5.75909 -4.17573,4.17308 -5.76995,10.01506 -5.76995,15.934 v 86.00564 h 51.88073 v -86.00564 c 0,-5.91808 -1.58835,-11.7605 -5.76452,-15.934 -4.17601,-4.17331 -10.01774,-5.75909 -15.93403,-5.75909 z m -798.745835,8.84799 h 19.207838 c 4.404491,0 7.419566,1.2675 9.473401,3.75239 2.053839,2.48491 3.19768,6.39003 3.19768,11.86077 v 50.59733 c 0,5.47071 -1.143841,9.37585 -3.19768,11.86077 -2.053838,2.48491 -5.068912,3.75239 -9.473401,3.75239 h -19.207838 z m 134.405916,0 h 14.688664 c 4.457208,0 7.562045,1.07212 9.576729,3.03998 2.014682,1.96786 3.099792,4.97256 3.099792,9.31025 v 150.16044 c 0,4.3647 -0.987314,7.4201 -2.751745,9.3701 -1.764436,1.9501 -4.409305,2.9801 -8.293305,2.9801 H 45.772333 c -4.457222,0 -7.560686,-1.0718 -9.576727,-3.0399 -2.016043,-1.968 -3.105229,-4.9728 -3.105229,-9.3103 V 818.64547 c 0,-4.34284 1.069202,-7.35698 3.034534,-9.32114 1.965329,-1.96418 4.977997,-3.02909 9.32113,-3.02909 z m 120.614549,0 h 17.25009 c 4.40444,0 7.42237,1.26719 9.47882,3.75239 2.05649,2.48519 3.20312,6.39045 3.20312,11.86077 v 36.55581 c 0,5.418 -1.40374,9.2265 -4.06778,11.74658 -2.66409,2.52011 -6.76001,3.87746 -12.52969,3.87746 h -13.33456 z m 135.6839,0 h 14.68866 c 4.45723,0 7.5607,1.07193 9.57675,3.03998 2.01603,1.96805 3.10522,4.97281 3.10522,9.31025 v 150.16044 c 0,4.3644 -0.98598,7.4199 -2.75174,9.3701 -1.76577,1.9503 -4.41474,2.9801 -8.29875,2.9801 h -15.99384 c -4.45723,0 -7.56205,-1.072 -9.57672,-3.0399 -2.01469,-1.9678 -3.09981,-4.9726 -3.09981,-9.3103 V 818.64547 c 0,-4.34309 1.0651,-7.35718 3.02912,-9.32114 1.96396,-1.96399 4.97799,-3.02909 9.32111,-3.02909 z m 408.04147,0 h 8.48363 c 4.34312,0 7.35579,1.06491 9.32114,3.02909 1.96532,1.96416 3.03452,4.97833 3.03452,9.32114 V 895.3028 H 697.4303 v -76.65733 c 0,-4.34281 1.0692,-7.35698 3.03452,-9.32114 1.96535,-1.96418 4.97799,-3.02909 9.32114,-3.02909 z m -553.06825,90.05713 v 1.35955 6.62921 86.65278 h 31.4928 c 5.21107,0 10.28407,-1.0082 14.35151,-4.3288 4.13566,-3.3763 6.03098,-8.7111 6.03098,-13.7805 v -51.9025 c 0,-7.06663 -2.21508,-13.87894 -7.30898,-18.43559 -5.06601,-4.53183 -11.8855,-6.19415 -19.27851,-6.19415 z m 9.34288,8.85345 h 15.94492 c 5.99938,0 10.28216,1.34012 13.0463,3.8122 2.76413,2.4721 4.19831,6.17343 4.19831,11.46923 v 51.90796 c 0,3.0953 -0.87795,5.1311 -2.59947,6.5367 -1.72152,1.4055 -4.4905,2.2242 -8.44014,2.2242 h -22.14992 z"
       id="path4447"
       inkscape:connector-curvature="0" />
  </g>
</svg>
